# xmcd
#
# Track frame offsets: 
#        150
#        17192
#        31767
#        50749
#        64197
#        81816
#        99156
#        113875
#        129268
#        149848
#
# Disc length: 2270 seconds
#
# Revision: 1
# Processed by: cddbd v1.5.2PL0 Copyright (c) Steve Scherf et al.
# Submitted via: ExactAudioCopy v0.99pb5
#
DISCID=8508dc0a
DTITLE=Tift Merritt - Stitch of the World
DYEAR=2017
DGENRE=Folk-Rock
TTITLE0=Dusty Old Man
TTITLE1=Heartache Is an Uphill Climb
TTITLE2=My Boat
TTITLE3=Love Solders On
TTITLE4=Stitch of the World
TTITLE5=Icarus
TTITLE6=Proclamation Bones
TTITLE7=Something Came Over Me
TTITLE8=Eastern Light
TTITLE9=Wait for Me
EXTD=
EXTT0=
EXTT1=
EXTT2=
EXTT3=
EXTT4=
EXTT5=
EXTT6=
EXTT7=
EXTT8=
EXTT9=
PLAYORDER=
